# xmcd
#
# Track frame offsets:
#	150
#	13169
#	25183
#	39731
#	51641
#	73081
#	93991
#	117064
#	133294
#	147073
#	158675
#	173163
#
# Disc length: 2434 seconds
#
# Revision: 1
# Processed by: cddbd v1.4PL0 Copyright (c) Steve Scherf et al.
# Submitted via: audiograbber 1.82.02
#
DISCID=a709800c
DTITLE=Psalmody - I Believe
DYEAR=1900
DGENRE=Gospel
TTITLE0=Singin' With The Saints
TTITLE1=I Wouldn't Take Nothin' For My Journey Now
TTITLE2=I Drove The Nails
TTITLE3=Victory's In The Shout
TTITLE4=Grace
TTITLE5=There Ain't No Grave
TTITLE6=My Jesus, I Love Thee
TTITLE7=When He Was On The Cross
TTITLE8=He's Still In The Fire
TTITLE9=Been There, Done That
TTITLE10=Blessed Cause I Believe
TTITLE11=I Believe
EXTD=
EXTT0=
EXTT1=
EXTT2=
EXTT3=
EXTT4=
EXTT5=
EXTT6=
EXTT7=
EXTT8=
EXTT9=
EXTT10=
EXTT11=
PLAYORDER=
